#!OML:ASF E:/inclinewalkrobotboard/Project1/Captureday1/Session1/subject1.ASF
:FULLY-SPECIFIED
:DEGREES
126
root 0 0 0 -0.9677208504496484 -2.7731786996780095 -2.4774041235861963
lowerback 9.37720796309802 0.3524257820558052 0.6647586141953572
upperback -0.03540698825803723 0.6844784194523236 1.7388240005207205
thorax -5.193125328482354 0.3557895974981657 1.3594276754286816
lowerneck -16.463078546100917 -2.9650143638100044 -1.9342221182763097
upperneck 19.882995925213198 -3.7996953056807197 0.6973634234839272
head 9.050453194184758 -1.8438259003385826 0.08050984679074658
rclavicle -6.578039676948347E-16 -4.799714249508926E-16
rhumerus -23.645340824372354 -18.88043571097243 -74.85845843882424
rradius 27.04118870147039
rwrist 6.52733757243174
rhand -15.765905363700687 20.932198089276454
rfingers 7.125020000000032
rthumb 10.403963259556699 -8.540894052334794
lclavicle -6.571362947025496E-16 -3.2032679989954587E-16
lhumerus -29.625120330082268 1.439192074088461 77.97863097554799
lradius 28.75580907159678
lwrist 3.126486440599928
lhand -23.784466319090853 23.324946229154296
lfingers 7.125020000000039
lthumb 2.631189803678918 52.999048429188484
rfemur -2.119381070461259 -8.606656680235915 13.54226804542725
rtibia 39.01430046213871
rfoot -9.036945903965297 -8.253662388290271
rtoes 6.440865902748605
lfemur -14.224177827452088 -0.516771180368897 -20.782160147430886
ltibia 34.3207416559587
lfoot -9.172685490963634 -0.4380139959992313
ltoes -2.0446354071140025
127
root 0 0 0 -1.1464249491805099 -2.682681654035303 -2.4354738589415925
lowerback 9.468221904914053 0.34874294474492085 0.6787640481171291
upperback 0.025989069395810915 0.6811567831873643 1.7348949344330655
thorax -5.178647731612168 0.353419948583502 1.3457076912828305
lowerneck -16.500272820513985 -2.9849856048777195 -1.946783033399813
upperneck 19.857400099939156 -3.821143298844079 0.6785166035532102
head 9.046391223250257 -1.8554802474924181 0.07463541067990642
rclavicle -6.59719898997794E-16 -4.804899741302207E-16
rhumerus -23.891198142081848 -18.85549183122235 -75.01610148262799
rradius 27.03620551837092
rwrist 6.409231998986403
rhand -15.87302486129113 21.019883443838616
rfingers 7.125020000000035
rthumb 10.300854181089568 -8.465690047563355
lclavicle -6.618452815579764E-16 -3.135517558849854E-16
lhumerus -29.762778031258442 1.4096643276325551 78.19674384030952
lradius 28.719610819615536
lwrist 3.2273981841789823
lhand -23.940138710660737 23.320853792760868
lfingers 7.125020000000041
lthumb 2.4806410668081504 53.01218660335793
rfemur -2.684778794543149 -7.920229680606454 14.209099432068086
rtibia 38.98769676549614
rfoot -8.960847148185435 -8.164433453273816
rtoes 6.311059057827347
lfemur -13.948544562254824 -0.5960652697701434 -20.720674374106657
ltibia 34.22249033536339
lfoot -9.081273286047056 -0.5718866498787598
ltoes -2.1515717153405216
128
root 0 0 0 -1.0869348631271087 -2.711497977644516 -2.4492516325249207
lowerback 9.437484459036394 0.3497548406141736 0.6738687552226259
upperback 0.005272691280220343 0.6820463777737249 1.7362582968923248
thorax -5.183408960121394 0.3540965150271742 1.3505800485433506
lowerneck -16.487577542321716 -2.9786302576868944 -1.9427700110680481
upperneck 19.866696194872322 -3.814579080879766 0.684682651214723
head 9.047907083513781 -1.8519058589891344 0.07652541912548105
rclavicle -6.601099902692411E-16 -4.806078086843057E-16
rhumerus -23.84957745369634 -18.86061878845818 -74.9840168139377
rradius 27.03727468583974
rwrist 6.4312909015075554
rhand -15.853639828292842 21.004134958024785
rfingers 7.125020000000034
rthumb 10.320206210133113 -8.479784139041286
lclavicle -6.607477744766611E-16 -3.1563656268214203E-16
lhumerus -29.734112639869466 1.41485631000847 78.15128041524554
lradius 28.727943236562748
lwrist 3.208366285926278
lhand -23.906461052121113 23.321091037658636
lfingers 7.125020000000041
lthumb 2.512848159008204 53.00895562948626
rfemur -2.533902170159948 -8.103484992331545 14.03407540685528
rtibia 38.99073619625247
rfoot -8.982309246969542 -8.188724251558614
rtoes 6.344734824128331
lfemur -13.995981810431154 -0.5831772012064693 -20.731080093587714
ltibia 34.23833775661376
lfoot -9.096815717846528 -0.5482901375966662
ltoes -2.1325017071620422
129
root 0 0 0 -1.0358443701128657 -2.739956233336997 -2.4618758024904066
lowerback 9.412081783992544 0.3512111364231528 0.6701916027833397
upperback -0.011946177209928521 0.683348006966027 1.737100819555176
thorax -5.187721843074784 0.3549864841962977 1.354064491521096
lowerneck -16.47747083590494 -2.9723676891011936 -1.9388103005397235
upperneck 19.872784881625474 -3.807735200329257 0.6903279844474266
head 9.048673548229864 -1.8480561103851874 0.07831621144242695
rclavicle -6.593537746097693E-16 -4.78698874500971E-16
rhumerus -23.754823484822474 -18.869328033743585 -74.9269002489715
rradius 27.03837955567412
rwrist 6.477422450240077
rhand -15.812342291494474 20.970411371218194
rfingers 7.125020000000033
rthumb 10.359640193035617 -8.508390976879385
lclavicle -6.591809886434505E-16 -3.1755801579196067E-16
lhumerus -29.687991973651414 1.4251609444795887 78.07786124153506
lradius 28.739554165693555
lwrist 3.1734188656238196
lhand -23.854200375602495 23.322783034550703
lfingers 7.12502000000004
lthumb 2.5634128841589856 53.00476379854659
rfemur -2.3664094147140844 -8.306794751127114 13.834516441012099
rtibia 39.000755469636964
rfoot -9.003943400608376 -8.215017136800498
rtoes 6.38402143156452
lfemur -14.098322786123717 -0.5530575105950941 -20.753579905604226
ltibia 34.27711169518347
lfoot -9.129519079096172 -0.49918541789276816
ltoes -2.092893492474241
